<svg width="50" height="50" viewBox="0 0 50 50" fill="none" xmlns="http://www.w3.org/2000/svg">
<circle cx="25" cy="25" r="25" fill="#0096FF"/>
<path fill-rule="evenodd" clip-rule="evenodd" d="M31.6942 21.6942C31.6942 22.8063 31.2598 24.0697 30.478 25.48C29.9801 26.3781 29.3495 27.3184 28.6165 28.2834C27.9671 29.1382 27.2733 29.9659 26.5795 30.7365C26.3366 31.0064 26.1107 31.2501 25.9075 31.4639C25.7842 31.5935 25.695 31.6853 25.6453 31.7353C25.2897 32.0937 24.7103 32.0937 24.3547 31.7353C24.305 31.6853 24.2158 31.5935 24.0925 31.4639C23.8893 31.2501 23.6634 31.0064 23.4205 30.7365C22.7267 29.9659 22.0329 29.1382 21.3835 28.2834C20.6505 27.3184 20.0199 26.3781 19.522 25.48C18.7402 24.0697 18.3058 22.8063 18.3058 21.6942C18.3058 17.794 21.4054 15 25 15C28.5946 15 31.6942 17.794 31.6942 21.6942ZM25.2283 29.52C25.8904 28.7846 26.5525 27.9947 27.1686 27.1836C27.8528 26.2829 28.4365 25.4126 28.8878 24.5985C29.5336 23.4336 29.876 22.4376 29.876 21.6942C29.876 18.8426 27.6301 16.8182 25 16.8182C22.3699 16.8182 20.124 18.8426 20.124 21.6942C20.124 22.4376 20.4664 23.4336 21.1122 24.5985C21.5635 25.4126 22.1472 26.2829 22.8314 27.1836C23.4475 27.9947 24.1096 28.7846 24.7717 29.52C24.8498 29.6067 24.926 29.6905 25 29.7713C25.074 29.6905 25.1502 29.6067 25.2283 29.52ZM22.438 21.6942C22.438 23.1092 23.5851 24.2562 25 24.2562C26.4149 24.2562 27.562 23.1092 27.562 21.6942C27.562 20.2793 26.4149 19.1322 25 19.1322C23.5851 19.1322 22.438 20.2793 22.438 21.6942ZM25 22.438C25.4108 22.438 25.7438 22.105 25.7438 21.6942C25.7438 21.2834 25.4108 20.9504 25 20.9504C24.5892 20.9504 24.2562 21.2834 24.2562 21.6942C24.2562 22.105 24.5892 22.438 25 22.438ZM29.0636 29.374C28.9758 29.8683 29.3053 30.3403 29.7996 30.4281C30.9681 30.6358 31.9222 30.9152 32.556 31.2274C32.903 31.3982 33.0821 31.5375 33.1495 31.59C33.1717 31.6073 33.1818 31.6151 33.1818 31.6116C33.1818 32.1653 29.4545 33.1818 25 33.1818C20.5455 33.1818 16.8182 32.1653 16.8182 31.6116C16.8182 31.6151 16.8283 31.6073 16.8505 31.59C16.9179 31.5375 17.097 31.3982 17.444 31.2274C18.0778 30.9152 19.0319 30.6358 20.2004 30.4281C20.6947 30.3403 21.0242 29.8683 20.9364 29.374C20.8485 28.8796 20.3766 28.5501 19.8822 28.638C16.8775 29.1721 15 30.0966 15 31.6116C15 33.7966 19.4128 35 25 35C30.5872 35 35 33.7966 35 31.6116C35 30.0966 33.1225 29.1721 30.1178 28.638C29.6234 28.5501 29.1515 28.8796 29.0636 29.374Z" fill="white"/>
</svg>
